<svg width="11" height="14" viewBox="0 0 11 14" fill="none" xmlns="http://www.w3.org/2000/svg">
<path fill-rule="evenodd" clip-rule="evenodd" d="M5.00113 7.05783C4.43274 7.05718 3.88784 6.83107 3.48597 6.42912C3.0841 6.02718 2.8581 5.48223 2.85755 4.91384C2.85821 4.34553 3.08426 3.80069 3.48611 3.39883C3.88797 2.99698 4.43282 2.77093 5.00113 2.77027C5.56944 2.77093 6.11428 2.99698 6.51614 3.39883C6.91799 3.80069 7.14405 4.34553 7.1447 4.91384C7.14416 5.48223 6.91815 6.02718 6.51628 6.42912C6.11442 6.83107 5.56951 7.05718 5.00113 7.05783ZM5.00113 0C2.24368 0 0 2.22962 0 4.97093C0 5.71965 0.161327 6.43693 0.476948 7.09465C1.97315 10.5259 4.7914 13.8824 4.81912 13.9155C4.91426 14.0284 5.08758 14.028 5.18231 13.9155V13.915C5.21085 13.8811 8.02042 10.5255 9.51331 7.1021C9.83445 6.43739 10.0013 5.70873 10.0014 4.97052C10.0023 2.23003 7.75898 0 5.00113 0Z" fill="#808080"/>
</svg>
