<svg width="30" height="26" viewBox="0 0 30 26" fill="none" xmlns="http://www.w3.org/2000/svg">
<path d="M10.9012 0.5V23.9451L15.8088 25.5V5.86737C15.8088 5.3022 15.8087 5.02065 16.0808 4.73751C16.2169 4.45548 16.4888 4.45553 16.761 4.59655C17.4425 4.87857 17.8534 5.44401 17.8534 6.57434V14.3402C19.4885 15.1874 20.8498 15.1874 21.9406 14.3402C23.0314 13.493 23.5771 12.2234 23.5771 10.1049C23.5782 7.84533 23.1684 6.43274 22.2147 5.30352C21.3972 4.1732 19.8989 3.18397 17.7174 2.47779C14.9915 1.6306 12.6735 0.92415 10.9012 0.5ZM9.53884 15.1903L3.2689 17.45L2.31669 17.8729C0.81767 18.5791 0 19.2855 0 19.9917C0.13608 20.8389 0.408307 21.9703 2.45272 22.6764C4.36106 23.3826 5.86029 23.6647 9.67696 22.5355V19.9917C5.9953 21.2619 5.45084 21.1216 4.90545 20.8396C4.36006 20.5576 4.35919 20.2736 4.49527 20.1326C4.90458 19.8506 6.40387 19.2847 6.40387 19.2847L9.53884 18.1548V15.1903ZM23.4076 16.2898C22.9647 16.2744 22.5218 16.2828 22.0787 16.318C20.5797 16.318 19.2154 16.6008 17.5793 17.025V19.9917L20.5782 18.8596L22.2126 18.2958C22.2126 18.2958 22.8958 18.1549 23.3051 18.0139C23.9865 17.8729 24.8035 18.1548 24.8035 18.1548C25.2128 18.1548 25.4857 18.2946 25.4857 18.5777C25.6218 18.8597 25.3489 19.0027 24.6675 19.2847L23.169 19.8507L17.7174 21.9673V24.934L20.1701 24.0861L26.9842 21.5444L27.8024 21.1194C29.4375 20.5542 30.1192 19.8478 29.9831 19.0006C29.9831 18.1545 29.0294 17.5901 27.3943 17.025C26.0651 16.6011 24.7365 16.3361 23.4076 16.2898Z" fill="#808080"/>
</svg>
