<svg width="14" height="14" viewBox="0 0 14 14" fill="none" xmlns="http://www.w3.org/2000/svg">
<path fill-rule="evenodd" clip-rule="evenodd" d="M3.96387 1.36499C5.2266 1.29883 6.86723 2.27745 6.98864 2.30151C7.00723 2.30424 7.26426 2.19053 7.56067 2.0451C9.25161 1.22229 10.0484 1.36225 10.4028 1.37811C8.71184 0.338254 6.36192 0.0550555 4.2127 1.06867C3.59364 1.36225 3.57778 1.38357 3.96387 1.36499ZM13.4621 5.71188C13.0153 3.59555 11.676 2.2643 11.4878 2.2643C11.2948 2.2643 10.8475 2.43651 10.5357 2.63224C9.91886 3.01603 9.45019 3.4627 8.83331 4.02909C9.9555 5.43907 11.5387 7.71724 12.0861 9.38144C12.266 9.92924 12.3426 10.4689 12.2819 10.7652C12.2371 10.9899 12.2371 10.9899 12.3185 10.8871C12.4804 10.6826 12.8457 10.0588 12.9912 9.73571C13.187 9.30708 13.3877 8.67235 13.4834 8.18249C13.5971 7.58712 13.5868 6.30944 13.4621 5.71188ZM5.2157 4.03187C4.43038 3.32004 3.67843 2.60603 2.92921 2.35454C2.52726 2.21951 2.49773 2.22771 2.17015 2.56886C1.39742 3.37307 0.753744 4.67754 0.574369 5.80705C0.431088 6.71186 0.412494 6.96609 0.462806 7.40783C0.611009 8.74401 0.921088 9.66686 1.53468 10.6067C1.78624 10.9926 1.85515 11.0643 1.78078 10.868C1.66976 10.5771 1.77257 9.87625 2.03234 9.17536C2.41078 8.14317 3.45859 6.18811 5.2157 4.03187ZM10.014 8.64614C11.1865 10.0824 11.7257 11.2594 11.4534 11.7865C11.2445 12.1856 9.95274 12.9663 9.00281 13.2653C8.21969 13.5114 7.19266 13.6174 6.34555 13.5349C5.33492 13.4376 4.31117 13.0745 3.4318 12.5038C2.69406 12.0221 2.52727 11.8231 2.52727 11.4295C2.52727 10.6378 3.39789 9.25135 4.88758 7.66971C5.73469 6.77255 6.91266 5.71957 7.04172 5.7491C7.29055 5.80431 9.27297 7.73586 10.014 8.64614Z" fill="#808080"/>
</svg>
