<?xml version="1.0" encoding="UTF-8"?>
<svg width="48px" height="76px" viewBox="0 0 48 76" version="1.1" xmlns="http://www.w3.org/2000/svg" xmlns:xlink="http://www.w3.org/1999/xlink">
    <!-- Generator: Sketch 55.2 (78181) - https://sketchapp.com -->
    <title>Group 12</title>
    <desc>Created with Sketch.</desc>
    <g id="Card-Specifications" stroke="none" stroke-width="1" fill="none" fill-rule="evenodd">
        <g id="CARD-SPECS-–-Brackets-Desktop-(2-of-2)" transform="translate(-477.000000, -695.000000)">
            <g id="Group-12" transform="translate(477.000000, 695.000000)">
                <rect id="Rectangle" stroke="#C9C9C9" fill="#FFFFFF" transform="translate(24.000000, 38.000000) rotate(-180.000000) translate(-24.000000, -38.000000) " x="0.5" y="0.5" width="47" height="75"></rect>
                <rect id="Rectangle" stroke="#C9C9C9" fill="#D8D8D8" transform="translate(24.000000, 37.500000) rotate(-180.000000) translate(-24.000000, -37.500000) " x="0.5" y="37.5" width="47" height="1"></rect>
                <path d="M31.8231055,59.5186955 C28.7194027,59.5486517 26.037768,59.5493134 22.3218162,59.5306341 C21.8522654,59.5282738 21.4508681,59.5261189 20.5746351,59.5213305 C18.6260215,59.5107149 17.3875564,59.5049442 16.16431,59.5019977 C18.1704555,61.3905442 20.9804021,62.5 24.0026009,62.5 C27.0158022,62.5 29.8180745,61.3971533 31.8231055,59.5186955 Z" id="Combined-Shape" stroke="#C9C9C9" transform="translate(24.000000, 61.000000) rotate(-180.000000) translate(-24.000000, -61.000000) "></path>
                <rect id="Rectangle" stroke="#C9C9C9" transform="translate(24.000000, 69.000000) rotate(-180.000000) translate(-24.000000, -69.000000) " x="8.5" y="62.5" width="31" height="13"></rect>
                <rect id="Rectangle-Copy-99" stroke="#C9C9C9" transform="translate(24.000000, 72.500000) rotate(-180.000000) translate(-24.000000, -72.500000) " x="16.5" y="69.5" width="15" height="6"></rect>
                <circle id="Oval" fill="#7C7C7C" transform="translate(23.625000, 65.625000) rotate(-180.000000) translate(-23.625000, -65.625000) " cx="23.625" cy="65.625" r="1"></circle>
                <path d="M31.8231055,13.5186955 C28.7194027,13.5486517 26.037768,13.5493134 22.3218162,13.5306341 C21.8522654,13.5282738 21.4508681,13.5261189 20.5746351,13.5213305 C18.6260215,13.5107149 17.3875564,13.5049442 16.16431,13.5019977 C18.1704555,15.3905442 20.9804021,16.5 24.0026009,16.5 C27.0158022,16.5 29.8180745,15.3971533 31.8231055,13.5186955 Z" id="Combined-Shape" stroke="#C9C9C9" transform="translate(24.000000, 15.000000) rotate(-360.000000) translate(-24.000000, -15.000000) "></path>
                <rect id="Rectangle" stroke="#C9C9C9" transform="translate(24.000000, 7.000000) rotate(-360.000000) translate(-24.000000, -7.000000) " x="8.5" y="0.5" width="31" height="13"></rect>
                <rect id="Rectangle-Copy-99" stroke="#C9C9C9" transform="translate(24.000000, 3.500000) rotate(-360.000000) translate(-24.000000, -3.500000) " x="16.5" y="0.5" width="15" height="6"></rect>
                <circle id="Oval" fill="#7C7C7C" transform="translate(24.375000, 9.375000) rotate(-360.000000) translate(-24.375000, -9.375000) " cx="24.375" cy="9.375" r="1"></circle>
                <circle id="Oval" stroke="#C9C9C9" transform="translate(24.000000, 38.000000) rotate(-180.000000) translate(-24.000000, -38.000000) " cx="24" cy="38" r="9"></circle>
                <circle id="Oval-Copy-22" fill="#19A663" transform="translate(40.250000, 28.250000) rotate(-630.000000) translate(-40.250000, -28.250000) " cx="40.25" cy="28.25" r="2.25"></circle>
                <circle id="Oval-Copy-19" fill="#19A663" transform="translate(16.250000, 10.250000) rotate(-630.000000) translate(-16.250000, -10.250000) " cx="16.25" cy="10.25" r="2.25"></circle>
                <circle id="Oval-Copy-23" fill="#19A663" transform="translate(32.250000, 18.250000) rotate(-630.000000) translate(-32.250000, -18.250000) " cx="32.25" cy="18.25" r="2.25"></circle>
                <circle id="Oval-Copy-20" fill="#19A663" transform="translate(32.250000, 10.250000) rotate(-630.000000) translate(-32.250000, -10.250000) " cx="32.25" cy="10.25" r="2.25"></circle>
                <circle id="Oval-Copy-27" fill="#19A663" transform="translate(16.250000, 18.250000) rotate(-630.000000) translate(-16.250000, -18.250000) " cx="16.25" cy="18.25" r="2.25"></circle>
                <circle id="Oval-Copy-32" fill="#19A663" transform="translate(16.250000, 34.250000) rotate(-630.000000) translate(-16.250000, -34.250000) " cx="16.25" cy="34.25" r="2.25"></circle>
                <circle id="Oval-Copy-21" fill="#19A663" transform="translate(40.250000, 12.250000) rotate(-630.000000) translate(-40.250000, -12.250000) " cx="40.25" cy="12.25" r="2.25"></circle>
                <circle id="Oval-Copy-25" fill="#19A663" transform="translate(32.250000, 34.250000) rotate(-630.000000) translate(-32.250000, -34.250000) " cx="32.25" cy="34.25" r="2.25"></circle>
                <circle id="Oval-Copy-20" fill="#19A663" transform="translate(24.250000, 3.250000) rotate(-630.000000) translate(-24.250000, -3.250000) " cx="24.25" cy="3.25" r="2.25"></circle>
                <g id="Group-21-Copy-29" transform="translate(24.000000, 38.000000) rotate(-180.000000) translate(-24.000000, -38.000000) ">
                    <g id="Group-18" transform="translate(8.000000, 0.000000)"></g>
                    <g id="Group-18-Copy" transform="translate(24.000000, 67.500000) rotate(-180.000000) translate(-24.000000, -67.500000) translate(8.000000, 59.000000)"></g>
                </g>
                <g id="Group-13-Copy-36" transform="translate(24.500000, 19.000000) rotate(-360.000000) translate(-24.500000, -19.000000) translate(6.000000, 1.000000)" fill="#19A663">
                    <circle id="Oval-Copy-18" transform="translate(2.250000, 11.250000) rotate(-270.000000) translate(-2.250000, -11.250000) " cx="2.25" cy="11.25" r="2.25"></circle>
                    <circle id="Oval-Copy-24" transform="translate(2.250000, 27.250000) rotate(-270.000000) translate(-2.250000, -27.250000) " cx="2.25" cy="27.25" r="2.25"></circle>
                </g>
            </g>
        </g>
    </g>
</svg>