<?xml version="1.0" encoding="UTF-8"?>
<svg width="48px" height="76px" viewBox="0 0 48 76" version="1.1" xmlns="http://www.w3.org/2000/svg" xmlns:xlink="http://www.w3.org/1999/xlink">
    <!-- Generator: Sketch 59.1 (86144) - https://sketch.com -->
    <title>Group 21 Copy 35</title>
    <desc>Created with Sketch.</desc>
    <g id="Card-Specifications" stroke="none" stroke-width="1" fill="none" fill-rule="evenodd">
        <g id="CARD-SPECS-–-Brackets-–-Desktop-(1-of-2)" transform="translate(-1772.000000, -764.000000)">
            <g id="Group-21-Copy-35" transform="translate(1772.000000, 763.500000)">
                <rect id="Rectangle" stroke="#D8D8D8" x="0.5" y="1" width="47" height="75"></rect>
                <rect id="Rectangle" stroke="#D8D8D8" fill="#B5B5B5" x="0.5" y="39" width="47" height="1"></rect>
                <g id="Group-18" transform="translate(8.000000, 0.000000)">
                    <path d="M23.8231055,14.0186955 C20.7194027,14.0486517 18.037768,14.0493134 14.3218162,14.0306341 C13.8522654,14.0282738 13.4508681,14.0261189 12.5746351,14.0213305 C10.6260215,14.0107149 9.3875564,14.0049442 8.16431001,14.0019977 C10.1704555,15.8905442 12.9804021,17 16.0026009,17 C19.0158022,17 21.8180745,15.8971533 23.8231055,14.0186955 Z" id="Combined-Shape" stroke="#D8D8D8"></path>
                    <rect id="Rectangle" stroke="#D8D8D8" x="0.5" y="1" width="31" height="13"></rect>
                    <rect id="Rectangle-Copy-99" stroke="#D8D8D8" x="8.5" y="1" width="15" height="6"></rect>
                    <circle id="Oval" fill="#B5B5B5" cx="16.375" cy="10.875" r="1"></circle>
                </g>
                <g id="Group-18-Copy" transform="translate(24.000000, 68.000000) rotate(-180.000000) translate(-24.000000, -68.000000) translate(8.000000, 59.000000)">
                    <path d="M23.8231055,14.0186955 C20.7194027,14.0486517 18.037768,14.0493134 14.3218162,14.0306341 C13.8522654,14.0282738 13.4508681,14.0261189 12.5746351,14.0213305 C10.6260215,14.0107149 9.3875564,14.0049442 8.16431001,14.0019977 C10.1704555,15.8905442 12.9804021,17 16.0026009,17 C19.0158022,17 21.8180745,15.8971533 23.8231055,14.0186955 Z" id="Combined-Shape" stroke="#D8D8D8"></path>
                    <rect id="Rectangle" stroke="#D8D8D8" x="0.5" y="1" width="31" height="13"></rect>
                    <rect id="Rectangle-Copy-99" stroke="#D8D8D8" x="8.5" y="1" width="15" height="6"></rect>
                    <circle id="Oval" fill="#B5B5B5" cx="16.375" cy="10.875" r="1"></circle>
                </g>
                <circle id="Oval" stroke="#D8D8D8" cx="24" cy="38.5" r="9"></circle>
            </g>
        </g>
    </g>
</svg>