<?xml version="1.0" encoding="UTF-8"?>
<svg width="106px" height="106px" viewBox="0 0 106 106" version="1.1" xmlns="http://www.w3.org/2000/svg" xmlns:xlink="http://www.w3.org/1999/xlink">
    <!-- Generator: Sketch 55.2 (78181) - https://sketchapp.com -->
    <title>Fill 1 Copy</title>
    <desc>Created with Sketch.</desc>
    <g id="Standings-Specifications" stroke="none" stroke-width="1" fill="none" fill-rule="evenodd" opacity="0.45">
        <g id="STANDINGS-SPECIFICATIONS-DESKTOP-(3-of-8)" transform="translate(-823.000000, -444.000000)" fill="#D8D8D8">
            <path d="M837.51377,445.008966 C837.317322,444.942968 835.53965,448.011363 835.416807,448.210357 C833.685836,451.006261 832.103597,453.892163 830.666536,456.844562 C826.596977,465.206777 823.465493,474.375465 823.075136,483.705647 C822.761937,491.198892 823.389858,498.532642 825.679207,505.690898 C827.578199,511.628196 830.416281,517.262504 834.044721,522.35783 C840.00515,530.728045 848.150358,537.805304 857.169682,542.842132 C862.605743,545.878029 868.334699,547.857961 874.263147,549.715898 C876.463156,550.405874 878.797682,549.714398 880.877893,548.968423 C883.160643,548.149951 885.408875,547.239482 887.615482,546.239016 C895.607391,542.61714 903.035338,537.9058 909.315057,531.817008 C916.574983,524.778248 922.15876,516.113043 925.611058,506.677364 C927.602943,501.23155 928.622744,495.422748 928.917669,489.652444 C929.489752,478.468326 927.061825,467.276707 922.215613,457.168051 C920.912563,454.449144 919.468902,452.035726 917.667373,449.638308 C916.507977,448.09486 915.348582,446.551913 914.189695,445.008966 C914.189695,445.008966 895.605868,451.63874 875.720513,444 C875.720513,444 855.512315,451.062259 837.51377,445.008966" id="Fill-1-Copy"></path>
        </g>
    </g>
</svg>