<?xml version="1.0" encoding="UTF-8"?>
<svg width="48px" height="76px" viewBox="0 0 48 76" version="1.1" xmlns="http://www.w3.org/2000/svg" xmlns:xlink="http://www.w3.org/1999/xlink">
    <!-- Generator: Sketch 55.2 (78181) - https://sketchapp.com -->
    <title>Group 35</title>
    <desc>Created with Sketch.</desc>
    <g id="Card-Specifications" stroke="none" stroke-width="1" fill="none" fill-rule="evenodd">
        <g id="CARD-SPECS-–-Brackets-Desktop-(2-of-2)" transform="translate(-1460.000000, -263.000000)">
            <g id="Group-35" transform="translate(1460.000000, 263.000000)">
                <g id="Group-21-Copy-30" transform="translate(24.000000, 38.000000) rotate(-180.000000) translate(-24.000000, -38.000000) ">
                    <rect id="Rectangle" stroke="#C9C9C9" fill="#FFFFFF" x="0.5" y="0.5" width="47" height="75"></rect>
                    <rect id="Rectangle" stroke="#C9C9C9" fill="#D8D8D8" x="0.5" y="38.5" width="47" height="1"></rect>
                    <g id="Group-18" transform="translate(8.000000, 0.000000)">
                        <path d="M23.8231055,13.5186955 C20.7194027,13.5486517 18.037768,13.5493134 14.3218162,13.5306341 C13.8522654,13.5282738 13.4508681,13.5261189 12.5746351,13.5213305 C10.6260215,13.5107149 9.3875564,13.5049442 8.16431001,13.5019977 C10.1704555,15.3905442 12.9804021,16.5 16.0026009,16.5 C19.0158022,16.5 21.8180745,15.3971533 23.8231055,13.5186955 Z" id="Combined-Shape" stroke="#C9C9C9"></path>
                        <rect id="Rectangle" stroke="#C9C9C9" x="0.5" y="0.5" width="31" height="13"></rect>
                        <rect id="Rectangle-Copy-99" stroke="#C9C9C9" x="8.5" y="0.5" width="15" height="6"></rect>
                        <circle id="Oval" fill="#7C7C7C" cx="16.375" cy="10.375" r="1"></circle>
                    </g>
                    <g id="Group-18-Copy" transform="translate(24.000000, 67.500000) rotate(-180.000000) translate(-24.000000, -67.500000) translate(8.000000, 59.000000)">
                        <path d="M23.8231055,13.5186955 C20.7194027,13.5486517 18.037768,13.5493134 14.3218162,13.5306341 C13.8522654,13.5282738 13.4508681,13.5261189 12.5746351,13.5213305 C10.6260215,13.5107149 9.3875564,13.5049442 8.16431001,13.5019977 C10.1704555,15.3905442 12.9804021,16.5 16.0026009,16.5 C19.0158022,16.5 21.8180745,15.3971533 23.8231055,13.5186955 Z" id="Combined-Shape" stroke="#C9C9C9"></path>
                        <rect id="Rectangle" stroke="#C9C9C9" x="0.5" y="0.5" width="31" height="13"></rect>
                        <rect id="Rectangle-Copy-99" stroke="#C9C9C9" x="8.5" y="0.5" width="15" height="6"></rect>
                        <circle id="Oval" fill="#7C7C7C" cx="16.375" cy="9.375" r="1"></circle>
                    </g>
                    <circle id="Oval" stroke="#C9C9C9" cx="24" cy="38" r="9"></circle>
                </g>
                <g id="Group-13-Copy-37" transform="translate(24.500000, 19.000000) rotate(-360.000000) translate(-24.500000, -19.000000) translate(9.000000, 1.000000)" fill="#4B5FFC">
                    <circle id="Oval-Copy-18" transform="translate(2.250000, 8.250000) rotate(-270.000000) translate(-2.250000, -8.250000) " cx="2.25" cy="8.25" r="2.25"></circle>
                    <circle id="Oval-Copy-22" transform="translate(15.250000, 15.250000) rotate(-270.000000) translate(-15.250000, -15.250000) " cx="15.25" cy="15.25" r="2.25"></circle>
                    <circle id="Oval-Copy-19" transform="translate(10.916667, 8.250000) rotate(-270.000000) translate(-10.916667, -8.250000) " cx="10.9166667" cy="8.25" r="2.25"></circle>
                    <circle id="Oval-Copy-23" transform="translate(27.250000, 18.250000) rotate(-270.000000) translate(-27.250000, -18.250000) " cx="27.25" cy="18.25" r="2.25"></circle>
                    <circle id="Oval-Copy-20" transform="translate(19.583333, 8.250000) rotate(-270.000000) translate(-19.583333, -8.250000) " cx="19.5833333" cy="8.25" r="2.25"></circle>
                    <circle id="Oval-Copy-24" transform="translate(15.250000, 27.250000) rotate(-270.000000) translate(-15.250000, -27.250000) " cx="15.25" cy="27.25" r="2.25"></circle>
                    <circle id="Oval-Copy-27" transform="translate(4.250000, 18.250000) rotate(-270.000000) translate(-4.250000, -18.250000) " cx="4.25" cy="18.25" r="2.25"></circle>
                    <circle id="Oval-Copy-32" transform="translate(6.250000, 33.250000) rotate(-270.000000) translate(-6.250000, -33.250000) " cx="6.25" cy="33.25" r="2.25"></circle>
                    <circle id="Oval-Copy-21" transform="translate(28.250000, 8.250000) rotate(-270.000000) translate(-28.250000, -8.250000) " cx="28.25" cy="8.25" r="2.25"></circle>
                    <circle id="Oval-Copy-25" transform="translate(24.250000, 33.250000) rotate(-270.000000) translate(-24.250000, -33.250000) " cx="24.25" cy="33.25" r="2.25"></circle>
                    <circle id="Oval-Copy-20" transform="translate(15.250000, 2.250000) rotate(-270.000000) translate(-15.250000, -2.250000) " cx="15.25" cy="2.25" r="2.25"></circle>
                </g>
            </g>
        </g>
    </g>
</svg>